HIERARCHY
ROOT hip
{
	OFFSET 0.000000 0.000000 0.000000 
	CHANNELS 6 Xposition Yposition Zposition Xrotation Zrotation Yrotation
	JOINT abdomen
	{
		OFFSET 0.000000 3.402643 0.000000 
		CHANNELS 3 Xrotation Zrotation Yrotation
		JOINT chest
		{
			OFFSET 0.000000 8.438565 -0.680529 
			CHANNELS 3 Xrotation Zrotation Yrotation
			JOINT neck
			{
				OFFSET 0.000000 10.207942 -0.272212 
				CHANNELS 3 Xrotation Zrotation Yrotation
				JOINT head
				{
					OFFSET 0.000000 3.130431 0.000000 
					CHANNELS 3 Xrotation Zrotation Yrotation
					End Site
					{
						OFFSET 0.000000 3.130435 0.000000 
					}
				}
			}
			JOINT lCollar
			{
				OFFSET 3.470700 6.669187 -0.816635 
				CHANNELS 3 Yrotation Zrotation Xrotation
				JOINT lShldr
				{
					OFFSET 3.198488 0.000000 0.000000 
					CHANNELS 3 Zrotation Yrotation Xrotation
					JOINT lForeArm
					{
						OFFSET 10.139888 0.000000 0.000000 
						CHANNELS 3 Yrotation Zrotation Xrotation
						JOINT lHand
						{
							OFFSET 8.370511 0.000000 0.000000 
							CHANNELS 3 Zrotation Yrotation Xrotation
							End Site
							{
								OFFSET 4.083176 0.000000 0.000000 
							}
						}
					}
				}
			}
			JOINT rCollar
			{
				OFFSET -3.470700 6.669187 -0.816635 
				CHANNELS 3 Yrotation Zrotation Xrotation
				JOINT rShldr
				{
					OFFSET -3.198488 0.000000 0.000000 
					CHANNELS 3 Zrotation Yrotation Xrotation
					JOINT rForeArm
					{
						OFFSET -10.139888 0.000000 0.000000 
						CHANNELS 3 Yrotation Zrotation Xrotation
						JOINT rHand
						{
							OFFSET -8.370511 0.000000 0.000000 
							CHANNELS 3 Zrotation Yrotation Xrotation
							End Site
							{
								OFFSET -4.083176 0.000000 0.000000 
							}
						}
					}
				}
			}
		}
	}
	JOINT lThigh
	{
		OFFSET 5.308129 -1.633274 1.361059 
		CHANNELS 3 Xrotation Zrotation Yrotation
		JOINT lShin
		{
			OFFSET -2.041588 -20.007561 0.000000 
			CHANNELS 3 Xrotation Zrotation Yrotation
			JOINT lFoot
			{
				OFFSET 0.000000 -19.190928 -1.224953 
				CHANNELS 3 Xrotation Yrotation Zrotation
				End Site
				{
					OFFSET 0.000000 -2.449906 4.627600 
				}
			}
		}
	}
	JOINT rThigh
	{
		OFFSET -5.308129 -1.633274 1.361059 
		CHANNELS 3 Xrotation Zrotation Yrotation
		JOINT rShin
		{
			OFFSET 2.041588 -20.007561 0.000000 
			CHANNELS 3 Xrotation Zrotation Yrotation
			JOINT rFoot
			{
				OFFSET 0.000000 -19.190928 -1.224953 
				CHANNELS 3 Xrotation Yrotation Zrotation
				End Site
				{
					OFFSET 0.000000 -2.449906 4.627600 
				}
			}
		}
	}
}
MOTION
Frames: 11
Frame Time: 0.033333
0.096735 40.725540 -1.075627 10.588478 -2.371796 -26.352734 46.285767 -1.617129 -14.449332 9.472656 0.000000 -0.019531 -8.544920 -0.009766 -0.009767 8.908587 11.546546 36.710903 1.992188 -2.001953 0.000341 -51.492237 -70.342552 -10.641271 -35.997280 -0.675687 8.460243 -56.606243 -43.739281 -132.679642 -2.001953 1.992188 0.000000 121.714203 52.350491 77.921387 82.953239 0.488924 8.890723 34.748875 -73.630890 -67.578346 -49.429581 29.450096 6.509890 30.077049 -1.202376 -2.447843 11.545815 -7.517315 -10.495760 -16.181473 -10.107356 -9.821653 41.056049 0.654318 2.989395 -26.393541 -18.747398 13.788054 
0.096735 40.600334 -1.075627 10.093585 -2.451161 -27.136415 46.285767 -1.617129 -14.449332 9.472656 0.000000 -0.019531 -8.544920 -0.009766 -0.009767 8.908587 11.546546 36.710903 1.992188 -2.001953 0.000341 -52.757374 -66.067657 -9.609751 -43.593185 -0.622394 8.516970 -53.940762 -41.928066 -136.725922 -2.001953 1.992188 0.000000 121.332314 51.871552 78.108475 84.622200 0.496806 8.915957 36.517498 -74.505066 -69.083641 -48.827946 29.882753 6.619839 29.890966 -1.217044 -2.441915 11.870011 -7.062839 -10.775379 -16.911728 -10.349756 -9.677617 42.285919 0.602320 3.040637 -26.525040 -17.924389 13.739120 
0.096735 40.765610 -1.075627 8.043847 -2.593832 -26.210672 46.285767 -1.617129 -14.449332 9.472656 0.000000 -0.019531 -8.544920 -0.009766 -0.009767 8.908587 11.546546 36.710903 1.992188 -2.001953 0.000341 -57.783577 -66.306297 -4.007607 -43.074142 -0.625659 8.516532 -53.322964 -41.411388 -135.608017 -2.001953 1.992188 0.000000 114.639259 50.651882 72.897461 88.506721 0.497198 8.961576 35.069031 -74.522003 -68.544960 -44.543571 28.646172 8.615852 26.164846 -1.358424 -2.233111 13.609409 -7.990357 -10.243818 -15.113079 -10.835845 -9.524319 42.128654 0.605411 3.063151 -26.352068 -18.769093 13.406884 
0.096735 40.930882 -1.075627 5.991713 -2.702891 -25.264660 46.285767 -1.617129 -14.449332 9.472656 0.000000 -0.019531 -8.544920 -0.009766 -0.009767 8.908587 11.546546 36.710903 1.992188 -2.001953 0.000341 -62.898746 -66.338448 1.663931 -42.545368 -0.628122 8.515553 -52.682346 -40.916199 -134.514145 -2.001953 1.992188 0.000000 108.329269 49.072144 68.076424 92.391228 0.505635 8.997212 33.638226 -74.541710 -67.996437 -40.395138 27.299677 10.491349 22.463934 -1.494839 -2.017673 15.382916 -8.913065 -9.685424 -13.316383 -11.304055 -9.367642 41.962749 0.605439 3.055059 -26.204079 -19.623152 13.089083 
0.096735 40.642899 -1.075627 5.783883 -2.676396 -25.264198 46.285767 -1.617129 -14.449332 9.472656 0.000000 -0.019531 -8.544920 -0.009766 -0.009767 8.908587 11.546546 36.710903 1.992188 -2.001953 0.000341 -62.025623 -65.970642 0.789187 -45.684067 -0.610278 8.539174 -52.154411 -39.127010 -135.608887 -2.001953 1.992188 0.000000 107.182358 48.642105 67.359627 94.245667 0.510716 9.014062 30.143780 -74.676025 -64.831543 -41.663364 27.503689 9.968160 24.265984 -1.426655 -2.128459 14.927679 -8.943345 -9.721704 -14.340921 -11.586615 -9.170340 43.874928 0.507798 3.150590 -26.948856 -19.652252 13.038372 
0.096735 40.354942 -1.075627 5.570460 -2.658733 -25.263741 46.285767 -1.617129 -14.449332 9.472656 0.000000 -0.019531 -8.544920 -0.009766 -0.009767 8.908587 11.546546 36.710903 1.992188 -2.001953 0.000341 -61.189629 -65.604965 -0.055014 -48.821739 -0.588506 8.561098 -51.674759 -37.336281 -136.664520 -2.001953 1.992188 0.000000 106.049042 48.218922 66.669762 96.100136 0.513184 9.031105 26.527760 -74.767731 -61.557571 -42.944313 27.700712 9.430122 26.076544 -1.358332 -2.238236 14.439070 -8.951398 -9.785634 -15.378763 -11.853346 -8.969397 45.796951 0.400291 3.230368 -27.692091 -19.681732 13.020267 
0.096735 40.362446 -1.075627 6.264719 -2.613523 -25.311605 46.285767 -1.617129 -14.449332 9.472656 0.000000 -0.019531 -8.544920 -0.009766 -0.009767 8.908587 11.546546 36.710903 1.992188 -2.001953 0.000341 -59.814964 -66.980095 -1.598974 -45.834534 -0.604513 8.537468 -52.755753 -38.614887 -135.589523 -2.001953 1.992188 0.000000 108.434570 49.111259 68.185844 93.718620 0.512313 9.007715 27.566935 -74.380173 -62.283298 -44.199654 27.949696 8.908505 27.074131 -1.338900 -2.285867 13.916839 -8.820729 -9.858650 -15.650631 -11.646811 -9.051408 45.465679 0.436620 3.209518 -27.700365 -19.667278 13.110587 
0.096735 40.369953 -1.075627 6.954716 -2.559522 -25.359486 46.285767 -1.617129 -14.449332 9.472656 0.000000 -0.019531 -8.544920 -0.009766 -0.009767 8.908587 11.546546 36.710903 1.992188 -2.001953 0.000341 -58.269531 -68.331093 -3.321545 -42.844036 -0.627001 8.511567 -53.894688 -39.874111 -134.461349 -2.001953 1.992188 0.000000 110.897820 49.964191 69.798935 91.346878 0.497356 8.984181 28.606808 -73.981628 -63.013954 -45.432705 28.168194 8.405780 28.061508 -1.299995 -2.357518 13.377681 -8.677715 -9.921086 -15.905027 -11.452041 -9.154176 45.143215 0.449237 3.208636 -27.694586 -19.661091 13.198864 
0.096735 40.500153 -1.075627 8.253271 -2.470077 -25.416279 46.285767 -1.617129 -14.449332 9.472656 0.000000 -0.019531 -8.544920 -0.009766 -0.009767 8.908587 11.546546 36.710903 1.992188 -2.001953 0.000341 -56.190754 -70.228470 -5.512167 -38.426956 -0.648279 8.474047 -55.498489 -41.660999 -132.725281 -2.001953 1.992188 0.000000 114.254280 50.952660 72.123688 88.174889 0.487013 8.946760 30.083790 -73.582939 -64.081879 -46.901955 28.455248 7.753313 28.775652 -1.265672 -2.396179 12.691228 -8.434130 -10.010460 -15.790839 -10.966735 -9.408297 43.514057 0.527310 3.130792 -27.247766 -19.636906 13.432050 
0.096735 40.630352 -1.075627 9.556259 -2.389336 -25.482899 46.285767 -1.617129 -14.449332 9.472656 0.000000 -0.019531 -8.544920 -0.009766 -0.009767 8.908587 11.546546 36.710903 1.992188 -2.001953 0.000341 -53.713692 -72.092094 -8.091619 -34.019375 -0.684245 8.444442 -57.208038 -43.420078 -130.892227 -2.001953 1.992188 0.000000 117.736031 51.861279 74.593353 84.993118 0.488505 8.929132 31.556156 -73.171883 -65.145699 -48.379307 28.721157 7.099915 29.508442 -1.241620 -2.447689 12.008081 -8.206569 -10.101686 -15.659516 -10.464607 -9.651465 41.865776 0.615216 3.034479 -26.808191 -19.587744 13.648694 
0.096735 40.740559 -1.075627 10.318084 -2.344495 -25.521114 46.285767 -1.617129 -14.449332 9.472656 0.000000 -0.019531 -8.544920 -0.009766 -0.009767 8.908587 11.546546 36.710903 1.992188 -2.001953 0.000341 -51.796818 -73.358429 -10.053604 -31.209101 -0.700062 8.424582 -58.342800 -44.417068 -129.674850 -2.001953 1.992188 0.000000 119.898865 52.360107 76.141830 83.138680 0.489903 8.902219 32.372795 -72.951294 -65.712723 -49.200760 28.870857 6.739559 29.881016 -1.212166 -2.449923 11.612857 -8.088053 -10.170031 -15.563141 -10.163056 -9.801955 40.841221 0.664131 2.982314 -26.538460 -19.577055 13.743974 
